<svg width="22" height="24" viewBox="0 0 22 24" fill="none" xmlns="http://www.w3.org/2000/svg">
<path d="M21.9941 4.99951C19.9947 3.00079 19.9947 3.00079 16.9956 0.00271368V4.99951H21.9941Z" fill="#92BFFA"/>
<path d="M7.49782 3.91843C7.49782 4.5155 7.98183 4.99951 8.5789 4.99951H16.9951V0.00271606H8.5789C7.98183 0.00271606 7.49782 0.486733 7.49782 1.0838V3.91843Z" fill="url(#paint0_linear_66_680)"/>
<path d="M21.9932 5.01123C22.0049 8.20987 21.9983 17.7036 21.9951 21.9995C21.9943 23.1041 21.0977 23.9995 19.9932 23.9995H2C0.895431 23.9995 3.87055e-07 23.1041 0 21.9995V8.59131C0 7.99426 0.48401 7.51028 1.08105 7.51025H3.91797C4.51481 7.51052 4.99902 7.99441 4.99902 8.59131V19.5024H16.9951V5.01123H21.9932Z" fill="url(#paint1_linear_66_680)"/>
<ellipse cx="12.3217" cy="14.276" rx="1.2973" ry="1.29647" fill="#1967D2"/>
<path d="M5 0.00634813C5.55157 0.00730227 5.99805 0.454718 5.99805 1.00635V4.01221C5.99805 4.64068 6.29707 5.23179 6.80273 5.60498L7.46777 6.09619C7.81171 6.35003 8.22878 6.48682 8.65625 6.48682H14.4951C15.0472 6.48682 15.4949 6.93475 15.4951 7.48682V16.98C15.4951 17.5322 15.0474 17.98 14.4951 17.98H7.49805C6.94583 17.9799 6.49808 17.5322 6.49805 16.98V8.67139C6.49806 8.23724 6.35689 7.81407 6.0957 7.46729L5.58691 6.79248C5.21558 6.29954 4.63759 6.00515 4.02051 5.99561H1C0.447722 5.9956 0 5.54789 0 4.99561V1.00049C0.000165845 0.447951 0.448441 -4.60729e-05 1.00098 0.00048876L5 0.00634813Z" fill="#FFC236"/>
<ellipse cx="12.9961" cy="15.505" rx="1" ry="0.999359" fill="#3630C4"/>
<defs>
<linearGradient id="paint0_linear_66_680" x1="10.9999" y1="0.00271606" x2="10.9999" y2="23.9995" gradientUnits="userSpaceOnUse">
<stop stop-color="#528FF4"/>
<stop offset="1" stop-color="#92BFFA"/>
</linearGradient>
<linearGradient id="paint1_linear_66_680" x1="10.9999" y1="0.00271606" x2="10.9999" y2="23.9995" gradientUnits="userSpaceOnUse">
<stop stop-color="#528FF4"/>
<stop offset="1" stop-color="#92BFFA"/>
</linearGradient>
</defs>
</svg>
